<svg width="15" height="15" viewBox="0 0 15 15" fill="none" xmlns="http://www.w3.org/2000/svg">
  <path class="axis" d="M7.04998 1.49913C7.04998 1.2506 7.25145 1.04913 7.49998 1.04913C7.74851 1.04913 7.94998 1.25061 7.94998 1.49913V13.4991C7.94998 13.7477 7.7485 13.9491 7.49998 13.9491C7.25145 13.9491 7.04998 13.7477 7.04998 13.4991V1.49913Z" fill="currentColor"/>
  <path class="pill" fill-rule="evenodd" clip-rule="evenodd" d="M3.75 4.99994H11.25C11.6642 4.99994 12 5.33573 12 5.74994V9.24994C12 9.66415 11.6642 9.99994 11.25 9.99994H3.75C3.33579 9.99994 3 9.66415 3 9.24994V5.74994C3 5.33572 3.33579 4.99994 3.75 4.99994ZM7.94998 5.99994L11 5.99994L11 8.99994L7.94998 8.99994L7.94998 5.99994ZM7.04998 8.99994L4 8.99994L4 5.99994L7.04998 5.99994L7.04998 8.99994Z" fill="currentColor"/>
</svg>
