<svg width="15" height="15" viewBox="0 0 15 15" fill="none" xmlns="http://www.w3.org/2000/svg">
  <path class="frame" fill-rule="evenodd" d="M1.5 2C0.671573 2 0 2.67157 0 3.5V11.5C0 12.3284 0.671573 13 1.5 13H13.5C14.3284 13 15 12.3284 15 11.5V3.5C15 2.67157 14.3284 2 13.5 2H1.5ZM1.5 3C1.22386 3 1 3.22386 1 3.5V11.5C1 11.77614 1.22386 12 1.5 12H13.5C13.77614 12 14 11.77614 14 11.5V3.5C14 3.22386 13.77614 3 13.5 3H1.5Z" fill="currentColor"/>
  <path class="dash" d="M2.5 9H12.5C12.77614 9 13 9.22386 13 9.5C13 9.77614 12.77614 10 12.5 10H2.5C2.22386 10 2 9.77614 2 9.5C2 9.22386 2.22386 9 2.5 9Z" fill="currentColor"/>
</svg>
