<svg width="15" height="15" viewBox="0 0 15 15" fill="none" xmlns="http://www.w3.org/2000/svg">
  <defs>
    <mask id="ai-mixer-horizontal-mask">
      <rect width="15" height="15" fill="white"/>
      <circle class="cutout-top" cx="5.5" cy="4.5" r="1.5" fill="black"/>
      <circle class="cutout-bottom" cx="9.5" cy="10.5" r="1.5" fill="black"/>
    </mask>
  </defs>
  <g mask="url(#ai-mixer-horizontal-mask)">
    <path class="track-top" d="M1.5 4H13.5C13.7761 4 14 4.22386 14 4.5C14 4.77614 13.7761 5 13.5 5H1.5C1.22386 5 1 4.77614 1 4.5C1 4.22386 1.22386 4 1.5 4Z" fill="currentColor"/>
    <path class="track-bottom" d="M1.5 10H13.5C13.7761 10 14 10.2239 14 10.5C14 10.7761 13.7761 11 13.5 11H1.5C1.22386 11 1 10.7761 1 10.5C1 10.2239 1.22386 10 1.5 10Z" fill="currentColor"/>
  </g>
  <path class="knob-top" fill-rule="evenodd" d="M5.5 2C6.88071 2 8 3.11929 8 4.5C8 5.88071 6.88071 7 5.5 7C4.11929 7 3 5.88071 3 4.5C3 3.11929 4.11929 2 5.5 2ZM5.5 3C4.67157 3 4 3.67157 4 4.5C4 5.32843 4.67157 6 5.5 6C6.32843 6 7 5.32843 7 4.5C7 3.67157 6.32843 3 5.5 3Z" fill="currentColor"/>
  <path class="knob-bottom" fill-rule="evenodd" d="M9.5 8C10.8807 8 12 9.11929 12 10.5C12 11.8807 10.8807 13 9.5 13C8.11929 13 7 11.8807 7 10.5C7 9.11929 8.11929 8 9.5 8ZM9.5 9C8.67157 9 8 9.67157 8 10.5C8 11.3284 8.67157 12 9.5 12C10.3284 12 11 11.3284 11 10.5C11 9.67157 10.3284 9 9.5 9Z" fill="currentColor"/>
</svg>
