<svg width="15" height="15" viewBox="0 0 15 15" fill="none" xmlns="http://www.w3.org/2000/svg">
  <path class="eye" d="M7.50002 3C10.6922 3 13.3435 4.70671 14.9239 7.23535C15.0124 7.37717 15.0235 7.55201 14.9571 7.70215L14.9239 7.76465C13.3435 10.2933 10.6922 12 7.50002 12C4.30788 12 1.65659 10.2933 0.0761963 7.76465C-0.0249881 7.6026 -0.0249956 7.3974 0.0761963 7.23535L0.227563 7C1.82294 4.60122 4.4078 3 7.50002 3ZM7.50002 4C4.80354 4 2.53299 5.37905 1.09963 7.5C2.53299 9.62094 4.80354 11 7.50002 11C10.1963 11 12.4661 9.62068 13.8994 7.5C12.4661 5.3793 10.1963 4 7.50002 4Z" fill="currentColor"/>
  <path class="slash" d="M12.6465 1.6465L1.6465 12.6465" stroke="currentColor" stroke-width="1" stroke-linecap="round"/>
</svg>
