<svg width="15" height="15" viewBox="0 0 15 15" fill="none" xmlns="http://www.w3.org/2000/svg">
  <path class="bar" d="M2.50006 2.19987C2.19637 2.19987 1.95036 2.44601 1.95026 2.74968V12.2497C1.95026 12.5534 2.1963 12.7995 2.50006 12.7995C2.80371 12.7994 3.04987 12.5534 3.04987 12.2497V2.74968C3.04976 2.44609 2.80364 2.20001 2.50006 2.19987Z" fill="currentColor"/>
  <path class="triangle" fill-rule="evenodd" d="M12.2667 2.3073C12.4216 2.22563 12.6078 2.23159 12.7579 2.32195C12.9079 2.41239 13 2.57453 13.0001 2.74968V12.2497C13.0001 12.4249 12.9079 12.5869 12.7579 12.6774C12.6079 12.7679 12.4216 12.7738 12.2667 12.6921L3.26666 7.94206C3.17011 7.89103 3.09545 7.81069 3.04987 7.7155V7.28386C3.09545 7.18882 3.17011 7.10825 3.26666 7.0573L12.2667 2.3073ZM12.0001 11.4196L4.57233 7.49968L12.0001 3.57878V11.4196Z" fill="currentColor"/>
</svg>
